<?xml version="1.0" encoding="UTF-8"?>
<svg version="1.1" xmlns="http://www.w3.org/2000/svg" width="1156" height="396">
<path d="M0 0 C381.48 0 762.96 0 1156 0 C1156 130.68 1156 261.36 1156 396 C774.52 396 393.04 396 0 396 C0 265.32 0 134.64 0 0 Z " fill="#000000" transform="translate(0,0)"/>
<path d="M0 0 C1.71413086 -0.02416992 1.71413086 -0.02416992 3.46289062 -0.04882812 C20.22203048 -0.05830192 34.42575841 4.85476403 46.8125 16.3125 C61.35852681 31.39908862 66.36267118 48.46243417 66.23022461 68.93115234 C66.03598223 76.35133309 65.18193816 82.61169643 61.8125 89.3125 C61.25304687 90.446875 60.69359375 91.58125 60.1171875 92.75 C51.28446271 109.75121396 37.75595035 120.61246165 19.8125 127.3125 C6.55254807 130.44410567 -11.82298303 130.53638985 -24.1875 124.3125 C-25.52907375 123.32358259 -26.86349199 122.32481446 -28.1875 121.3125 C-29.734375 120.755625 -29.734375 120.755625 -31.3125 120.1875 C-46.12793701 113.96438467 -55.15090507 96.78614172 -60.91015625 82.7109375 C-63.23670648 76.52103322 -63.37065599 71.19748089 -63.375 64.625 C-63.38724609 63.66916016 -63.39949219 62.71332031 -63.41210938 61.72851562 C-63.43114659 52.41931951 -61.87127202 44.72596607 -57.625 36.4375 C-57.27348877 35.74841553 -56.92197754 35.05933105 -56.55981445 34.34936523 C-48.21163571 18.54252249 -34.73546738 6.67895306 -17.6484375 1.171875 C-11.83861353 -0.18652471 -5.93467753 -0.01645779 0 0 Z " fill="#0E141A" transform="translate(192.1875,147.6875)"/>
<path d="M0 0 C1.71413086 -0.02416992 1.71413086 -0.02416992 3.46289062 -0.04882812 C20.22203048 -0.05830192 34.42575841 4.85476403 46.8125 16.3125 C61.35852681 31.39908862 66.36267118 48.46243417 66.23022461 68.93115234 C66.03598223 76.35133309 65.18193816 82.61169643 61.8125 89.3125 C61.25304687 90.446875 60.69359375 91.58125 60.1171875 92.75 C51.28446271 109.75121396 37.75595035 120.61246165 19.8125 127.3125 C6.55254807 130.44410567 -11.82298303 130.53638985 -24.1875 124.3125 C-25.52907375 123.32358259 -26.86349199 122.32481446 -28.1875 121.3125 C-29.734375 120.755625 -29.734375 120.755625 -31.3125 120.1875 C-46.12793701 113.96438467 -55.15090507 96.78614172 -60.91015625 82.7109375 C-63.23670648 76.52103322 -63.37065599 71.19748089 -63.375 64.625 C-63.38724609 63.66916016 -63.39949219 62.71332031 -63.41210938 61.72851562 C-63.43114659 52.41931951 -61.87127202 44.72596607 -57.625 36.4375 C-57.27348877 35.74841553 -56.92197754 35.05933105 -56.55981445 34.34936523 C-48.21163571 18.54252249 -34.73546738 6.67895306 -17.6484375 1.171875 C-11.83861353 -0.18652471 -5.93467753 -0.01645779 0 0 Z M-15.875 22.0625 C-17.92057292 23.09895833 -19.96614583 24.13541667 -22.01171875 25.171875 C-23.02153809 25.68814453 -24.03135742 26.20441406 -25.07177734 26.73632812 C-27.2143861 27.82022423 -29.3664034 28.88565707 -31.52587891 29.93554688 C-32.59628418 30.45697266 -33.66668945 30.97839844 -34.76953125 31.515625 C-35.73737549 31.98129883 -36.70521973 32.44697266 -37.70239258 32.92675781 C-40.02619824 34.22255513 -41.58074651 35.20577269 -43.1875 37.3125 C-43.58820387 40.31319079 -43.79785734 43.11163248 -43.875 46.125 C-43.90408447 47.02412109 -43.93316895 47.92324219 -43.96313477 48.84960938 C-44.02097631 50.86647475 -44.06980633 52.88361157 -44.11132812 54.90087891 C-44.18029685 57.98988204 -44.28071846 61.07661757 -44.38822937 64.16447449 C-44.47468249 66.87513464 -44.53165801 69.58589623 -44.58145142 72.29745483 C-44.62447898 74.28839199 -44.69525057 76.27866668 -44.76635742 78.26879883 C-45.04827221 84.49113313 -45.04827221 84.49113313 -43.02075195 90.18530273 C-41.33107527 91.75174428 -41.33107527 91.75174428 -38.1875 93.3125 C-37.27613281 93.83972656 -36.36476562 94.36695313 -35.42578125 94.91015625 C-34.46027344 95.39355469 -33.49476563 95.87695312 -32.5 96.375 C-26.45657762 99.53326592 -20.69510378 103.03545392 -14.9375 106.6875 C-14.09098877 107.22383057 -13.24447754 107.76016113 -12.37231445 108.31274414 C-6.33841888 112.16158112 -6.33841888 112.16158112 -5.1875 113.3125 C3.66650371 114.71050059 10.09099053 110.48374536 17.62597656 106.44580078 C20.53526785 104.93788094 23.5061037 103.59124632 26.49389648 102.24731445 C29.33562344 100.95533286 32.13709202 99.58783663 34.93701172 98.20800781 C36.60913268 97.40960379 38.32052498 96.69466674 40.03515625 95.9921875 C43.20889693 94.39390083 44.79256524 93.25506572 46.8125 90.3125 C48.90320795 83.5601479 48.71665445 76.31242031 48.8125 69.3125 C48.85358887 67.55558838 48.85358887 67.55558838 48.89550781 65.76318359 C49.02653509 59.79986365 49.10349593 53.83588706 49.078125 47.87109375 C49.07474121 46.40627563 49.07474121 46.40627563 49.07128906 44.91186523 C48.79813371 42.16820012 48.34415725 40.59393697 46.8125 38.3125 C45.24320546 37.06945463 45.24320546 37.06945463 43.34765625 36.15625 C42.63907471 35.77919922 41.93049316 35.40214844 41.20043945 35.01367188 C40.43304443 34.61728516 39.66564941 34.22089844 38.875 33.8125 C31.07950159 29.65997264 23.62715842 25.13793118 16.27172852 20.24804688 C3.61245728 12.0033963 -3.36047246 15.65281069 -15.875 22.0625 Z " fill="#6E97C8" transform="translate(192.1875,147.6875)"/>
<path d="M0 0 C1.78954102 -0.04350586 1.78954102 -0.04350586 3.61523438 -0.08789062 C10.44159442 -0.13721952 14.99079049 0.02705593 20.4375 4.3125 C22.1796875 6.34765625 22.1796875 6.34765625 23.3125 8.375 C23.70179688 9.04660156 24.09109375 9.71820313 24.4921875 10.41015625 C34.08155129 29.70776023 24.33843014 64.06108854 18.38671875 83.796875 C14.71069552 94.55966467 8.2809517 103.44428841 -1.5625 109.3125 C-5.43831093 111.16577542 -8.49801503 111.55936852 -12.78125 111.54296875 C-13.96074219 111.54103516 -15.14023437 111.53910156 -16.35546875 111.53710938 C-17.57878906 111.52486328 -18.80210937 111.51261719 -20.0625 111.5 C-21.28582031 111.49935547 -22.50914062 111.49871094 -23.76953125 111.49804688 C-33.65875469 111.44941135 -33.65875469 111.44941135 -38.5625 110.3125 C-38.19361185 102.88385594 -37.33865663 95.74125234 -35.86010742 88.453125 C-34.42891063 81.11941073 -33.5147639 73.72070421 -32.5625 66.3125 C-31.41111371 57.37906427 -30.13868289 48.55446432 -28.34765625 39.7265625 C-26.87613741 31.9641567 -26.00250872 24.08350245 -25.0078125 16.24780273 C-24.76998047 14.43324585 -24.76998047 14.43324585 -24.52734375 12.58203125 C-24.3893335 11.49510986 -24.25132324 10.40818848 -24.10913086 9.28833008 C-23.57939672 6.40448489 -22.75311492 3.98357295 -21.5625 1.3125 C-14.37588309 0.21714203 -7.26243714 0.0590442 0 0 Z " fill="#F3F3F3" transform="translate(401.5625,136.6875)"/>
<path d="M0 0 C1.23073242 -0.00580078 1.23073242 -0.00580078 2.48632812 -0.01171875 C15.44646783 0.00896783 15.44646783 0.00896783 17.5625 2.125 C17.65289277 12.84558258 15.41443981 23.47131559 13.6015625 33.98828125 C12.66602001 39.43938681 11.83064669 44.89801251 11.0625 50.375 C10.94608154 51.20306152 10.82966309 52.03112305 10.7097168 52.88427734 C10.325516 55.63093739 9.94404458 58.37796976 9.5625 61.125 C8.87951068 66.02147628 8.19075221 70.91711351 7.5 75.8125 C7.33757813 76.98264648 7.17515625 78.15279297 7.0078125 79.35839844 C4.18610491 99.34549386 4.18610491 99.34549386 0.8125 103.5625 C0.34328125 104.17996094 -0.1259375 104.79742187 -0.609375 105.43359375 C-4.91680626 109.41888806 -9.17914082 110.50011942 -14.9296875 110.41796875 C-16.12851562 110.40830078 -17.32734375 110.39863281 -18.5625 110.38867188 C-19.8 110.36353516 -21.0375 110.33839844 -22.3125 110.3125 C-23.57320312 110.29896484 -24.83390625 110.28542969 -26.1328125 110.27148438 C-29.23455907 110.23623725 -32.33608492 110.18243361 -35.4375 110.125 C-35.4375 106.165 -35.4375 102.205 -35.4375 98.125 C-34.04015625 98.06441406 -32.6428125 98.00382812 -31.203125 97.94140625 C-29.36457358 97.85698297 -27.52603243 97.77233586 -25.6875 97.6875 C-24.76710938 97.64818359 -23.84671875 97.60886719 -22.8984375 97.56835938 C-22.00898437 97.52646484 -21.11953125 97.48457031 -20.203125 97.44140625 C-19.38618164 97.40474854 -18.56923828 97.36809082 -17.72753906 97.33032227 C-15.5340577 97.13365725 -13.55353587 96.72199406 -11.4375 96.125 C-11.23253906 95.14917969 -11.02757812 94.17335938 -10.81640625 93.16796875 C-10.54699219 91.89566406 -10.27757812 90.62335938 -10 89.3125 C-9.73316406 88.04792969 -9.46632813 86.78335938 -9.19140625 85.48046875 C-8.4375 82.125 -8.4375 82.125 -7.4375 79.125 C-8.5821875 80.115 -8.5821875 80.115 -9.75 81.125 C-14.30532164 84.14748829 -19.18253986 83.84955909 -24.4375 83.125 C-27.67419583 82.2412006 -28.74930112 81.42116988 -31.4375 79.125 C-34.98649627 72.37783416 -34.90693393 65.0634464 -34.8125 57.625 C-34.7983606 55.90567261 -34.7983606 55.90567261 -34.78393555 54.15161133 C-34.48436925 37.15987654 -32.150201 19.30178863 -20.4375 6.125 C-19.6125 5.155625 -18.7875 4.18625 -17.9375 3.1875 C-12.96888966 -0.91160353 -6.16425438 -0.02891753 0 0 Z " fill="#F1F1F1" transform="translate(595.4375,164.875)"/>
<path d="M0 0 C1.00289062 -0.03738281 2.00578125 -0.07476562 3.0390625 -0.11328125 C9.80417078 -0.19297493 14.55595277 0.69054466 19.625 5.375 C23.74755138 10.70335692 23.08040288 17.05234315 23 23.5 C22.99129883 24.65056885 22.98259766 25.8011377 22.97363281 26.98657227 C22.64349224 46.52304634 20.43627143 68.02159409 5.8125 82.5 C2.26889285 85.35513491 -0.39589056 86.12447774 -4.90625 86.01171875 C-8.66723024 85.0417191 -11.9617948 83.19938959 -15.375 81.375 C-16.02457631 84.87431587 -16.66897258 88.37456712 -17.3125 91.875 C-17.49490234 92.85726562 -17.67730469 93.83953125 -17.86523438 94.8515625 C-18.87318628 100.34948198 -19.746823 105.82059282 -20.375 111.375 C-22.35409398 111.40186553 -24.33328971 111.42133375 -26.3125 111.4375 C-27.41464844 111.44910156 -28.51679687 111.46070313 -29.65234375 111.47265625 C-32.375 111.375 -32.375 111.375 -33.375 110.375 C-33.94477094 102.74356454 -32.97052069 95.36083736 -31.6953125 87.85546875 C-31.52248749 86.79443436 -31.34966248 85.73339996 -31.17160034 84.64021301 C-30.62256954 81.27957209 -30.06173213 77.92103882 -29.5 74.5625 C-28.94935979 71.22264231 -28.40118828 67.88238642 -27.85334778 64.54206848 C-27.49972079 62.38654631 -27.14514638 60.23117935 -26.78959656 58.07597351 C-25.7247775 51.60080865 -24.73574329 45.12398033 -23.8359375 38.6237793 C-23.01212862 32.81741024 -22.07678856 27.02849199 -21.14282227 21.23901367 C-20.8066725 19.1513075 -20.4745924 17.06297676 -20.14257812 14.97460938 C-19.92732817 13.63537729 -19.71184259 12.29618305 -19.49609375 10.95703125 C-19.20883423 9.16616089 -19.20883423 9.16616089 -18.91577148 7.33911133 C-18.375 4.375 -18.375 4.375 -17.375 1.375 C-11.60081203 0.1728653 -5.87407788 0.08241691 0 0 Z " fill="#F0F0F0" transform="translate(764.375,163.625)"/>
<path d="M0 0 C1.08958008 0.67401855 2.17916016 1.34803711 3.30175781 2.04248047 C4.191362 2.58713455 4.191362 2.58713455 5.09893799 3.14279175 C6.99081161 4.30481669 8.87266819 5.48207728 10.75488281 6.65966797 C12.61994597 7.80792003 14.48678047 8.95325153 16.35372925 10.09843445 C18.15605285 11.21712899 19.93748523 12.36482809 21.72021484 13.5144043 C24.8639448 15.5484989 24.8639448 15.5484989 27.87939453 16.81079102 C30.66861386 18.14052233 32.17726512 19.02746264 34.00488281 21.53466797 C35.13659764 27.42744419 34.89721914 33.12885447 34.62988281 39.09716797 C34.59327417 40.71361765 34.56068289 42.3301636 34.53222656 43.94677734 C34.25727418 56.24070259 34.25727418 56.24070259 33.00488281 61.53466797 C29.46054627 60.11693335 28.66682162 58.85854559 27.00488281 55.53466797 C26.4003125 55.24720703 25.79574219 54.95974609 25.17285156 54.66357422 C22.572323 53.30942511 21.19259753 51.71347666 19.31738281 49.47216797 C18.71539062 48.75931641 18.11339844 48.04646484 17.49316406 47.31201172 C16.75646484 46.43222656 16.75646484 46.43222656 16.00488281 45.53466797 C14.96778839 44.29847384 14.96778839 44.29847384 12.73535156 44.20263672 C9.02469799 44.65386069 7.84808925 46.15319014 5.31738281 48.84716797 C4.16689453 50.04792969 4.16689453 50.04792969 2.99316406 51.27294922 C0.88652897 53.56838317 0.88652897 53.56838317 -0.99511719 56.53466797 C-5.66816614 55.70108362 -7.64256921 52.83675087 -10.49511719 49.28466797 C-10.96820313 48.71103516 -11.44128906 48.13740234 -11.92871094 47.54638672 C-12.85784721 46.41649524 -13.78119298 45.28181336 -14.69824219 44.14208984 C-15.8942582 42.65967842 -17.11548198 41.19769932 -18.33886719 39.73779297 C-19.99511719 37.53466797 -19.99511719 37.53466797 -19.99511719 35.53466797 C-22.64389415 34.11568031 -25.07526538 33.21555778 -27.99511719 32.53466797 C-28.32721191 32.97746094 -28.65930664 33.42025391 -29.00146484 33.87646484 C-36.78417969 44.25341797 -36.78417969 44.25341797 -38.3828125 46.37451172 C-39.48921442 47.85686244 -40.58165551 49.3497054 -41.66210938 50.85107422 C-42.19223633 51.58197266 -42.72236328 52.31287109 -43.26855469 53.06591797 C-43.98277588 54.06461914 -43.98277588 54.06461914 -44.71142578 55.08349609 C-45.13504395 55.56238281 -45.55866211 56.04126953 -45.99511719 56.53466797 C-46.65511719 56.53466797 -47.31511719 56.53466797 -47.99511719 56.53466797 C-48.10279812 43.82334773 -48.11601263 31.20478972 -46.99511719 18.53466797 C-44.68511719 17.87466797 -42.37511719 17.21466797 -39.99511719 16.53466797 C-39.99511719 15.87466797 -39.99511719 15.21466797 -39.99511719 14.53466797 C-35.92144844 12.41395611 -31.84630671 10.2961123 -27.76977539 8.1809082 C-26.38329908 7.46099145 -24.99722799 6.74029374 -23.61157227 6.01879883 C-21.61938895 4.98166434 -19.62576357 3.94735038 -17.63183594 2.91357422 C-17.01298019 2.59062881 -16.39412445 2.26768341 -15.7565155 1.93495178 C-10.09473619 -0.99396129 -6.01379735 -2.94219202 0 0 Z " fill="#6D96C7" transform="translate(200.9951171875,168.46533203125)"/>
<path d="M0 0 C0.76441406 -0.020625 1.52882813 -0.04125 2.31640625 -0.0625 C7.02649497 -0.09503947 9.87334986 0.32384202 13.75 3.25 C14.49121094 3.75917969 15.23242188 4.26835938 15.99609375 4.79296875 C21.205262 8.70216631 25.27347789 12.72175992 28.75 18.25 C29.12253906 18.81332031 29.49507813 19.37664062 29.87890625 19.95703125 C32.53807338 26.95672232 31.77464445 36.77298961 29.6875 43.85546875 C26.62265749 50.42655773 22.70519906 55.14651351 16.75 59.25 C16.19183594 59.68183594 15.63367188 60.11367187 15.05859375 60.55859375 C8.4129958 64.8551884 -0.65991165 64.23960331 -8.25 63.25 C-16.5032812 61.11700914 -22.52108089 55.16447272 -27.25 48.25 C-31.66710747 39.41698503 -32.18013741 28.2115237 -29.1484375 18.84765625 C-24.53933845 9.86361024 -18.18455373 5.4091888 -9.25 1.25 C-7.16321478 -0.83678522 -2.86669969 0.01895339 0 0 Z " fill="#6C96C7" transform="translate(308.25,54.75)"/>
<path d="M0 0 C1.81242052 -0.02687279 3.62495233 -0.04633715 5.4375 -0.0625 C6.44683594 -0.07410156 7.45617187 -0.08570313 8.49609375 -0.09765625 C11 0 11 0 12 1 C13.03272487 9.75830127 10.77584793 18.48015813 9 27 C9.57443848 26.97905273 10.14887695 26.95810547 10.74072266 26.93652344 C13.36863374 26.85286236 15.9962639 26.8011854 18.625 26.75 C19.98044922 26.69972656 19.98044922 26.69972656 21.36328125 26.6484375 C27.03732479 26.56560475 30.69168281 26.8955464 35 31 C38.79354114 39.05717527 37.46495617 48.49127986 35.640625 56.9296875 C33.95398881 64.97600735 32.66971098 73.06112201 31.4375 81.1875 C31.02076098 83.91034554 30.60222918 86.63291422 30.18359375 89.35546875 C29.98620605 90.64114746 29.78881836 91.92682617 29.58544922 93.25146484 C28.76449055 98.50792834 27.89178155 103.75513625 27 109 C19.3828125 109.29296875 19.3828125 109.29296875 17 109 C12.3818443 102.07276645 14.81460585 91.30641074 16.3347168 83.5 C16.69805121 81.6926863 17.0614971 79.885395 17.42504883 78.078125 C18.97986225 69.981727 19.73966516 61.90773236 20.3125 53.6875 C20.40063965 52.44653564 20.4887793 51.20557129 20.57958984 49.92700195 C20.88035747 45.466562 20.88035747 45.466562 21 41 C19.05909174 39.05909174 15.52706098 39.60080565 12.9375 39.4375 C11.64714844 39.35371094 10.35679687 39.26992187 9.02734375 39.18359375 C7.52880859 39.09271484 7.52880859 39.09271484 6 39 C5.97873047 40.44439453 5.97873047 40.44439453 5.95703125 41.91796875 C5.5894608 54.570697 3.45617306 66.77046857 1.19921875 79.20703125 C0.25631312 84.42272412 -0.51220586 89.61125544 -1.125 94.875 C-2.41827563 105.41827563 -2.41827563 105.41827563 -6 109 C-7.85287502 109.07226502 -9.70833878 109.0838122 -11.5625 109.0625 C-13.08037109 109.04896484 -13.08037109 109.04896484 -14.62890625 109.03515625 C-15.41136719 109.02355469 -16.19382812 109.01195312 -17 109 C-15.63346663 93.23092417 -13.42119299 77.63846639 -11 62 C-10.69763283 60.04171047 -10.39555725 58.0833759 -10.09375 56.125 C-9.84625 54.51927124 -9.84625 54.51927124 -9.59375 52.88110352 C-8.98674074 48.91332958 -8.38765985 44.94441274 -7.78930664 40.97532654 C-7.18654508 36.98721248 -6.57782093 33.00001958 -5.96826172 29.01293945 C-5.65368923 26.9468969 -5.34155063 24.88048242 -5.03173828 22.8137207 C-4.57956769 19.80059442 -4.11877772 16.78889525 -3.65625 13.77734375 C-3.51973022 12.85445053 -3.38321045 11.93155731 -3.24255371 10.98069763 C-3.10901489 10.12202591 -2.97547607 9.26335419 -2.83789062 8.37866211 C-2.6670697 7.25167152 -2.6670697 7.25167152 -2.49279785 6.10191345 C-1.96298029 3.84210111 -1.11371461 2.02889234 0 0 Z " fill="#F1F1F1" transform="translate(810,138)"/>
<path d="M0 0 C1.61938477 -0.01836914 1.61938477 -0.01836914 3.27148438 -0.03710938 C4.30982422 -0.03904297 5.34816406 -0.04097656 6.41796875 -0.04296875 C7.82792114 -0.04913208 7.82792114 -0.04913208 9.26635742 -0.05541992 C11.91144642 0.19694018 13.5440005 0.84292028 15.8125 2.1875 C16.0625 8.8125 16.0625 8.8125 13.8125 12.1875 C11.17977356 13.06507548 9.50173151 13.34102643 6.79296875 13.43359375 C5.62991211 13.48290039 5.62991211 13.48290039 4.44335938 13.53320312 C2.8262982 13.59395602 1.20910499 13.65129902 -0.40820312 13.70507812 C-4.9840413 13.90567318 -8.92669777 14.32546979 -13.1875 16.1875 C-15.71803495 20.09832675 -15.85838123 24.65905168 -15.1875 29.1875 C-12.6137808 36.85016397 -7.25052071 42.5107726 -1.1875 47.625 C5.08295748 52.98426289 10.82232248 59.82783561 12.13012695 68.22753906 C12.28699787 70.43234835 12.33105173 72.60222841 12.3125 74.8125 C12.30750488 75.59794189 12.30250977 76.38338379 12.29736328 77.19262695 C12.01871255 86.62735626 9.21183911 95.82526832 2.55078125 102.76171875 C-0.73003392 105.45272445 -4.35045034 107.40577433 -8.1875 109.1875 C-9.31091797 109.74244141 -9.31091797 109.74244141 -10.45703125 110.30859375 C-14.08346809 111.47590175 -17.54449802 111.4848041 -21.3125 111.4375 C-22.06152588 111.43290771 -22.81055176 111.42831543 -23.58227539 111.42358398 C-30.10037127 111.31787756 -37.26175832 111.15037084 -43.1875 108.1875 C-43.21437279 106.37507948 -43.23383715 104.56254767 -43.25 102.75 C-43.26160156 101.74066406 -43.27320313 100.73132813 -43.28515625 99.69140625 C-43.1875 97.1875 -43.1875 97.1875 -42.1875 96.1875 C-40.27046565 96.07789589 -38.34974957 96.03160317 -36.4296875 96.01171875 C-35.24632812 95.98787109 -34.06296875 95.96402344 -32.84375 95.93945312 C-30.34652141 95.89688673 -27.84907601 95.86542034 -25.3515625 95.84570312 C-18.48162032 95.68585057 -13.68947212 95.47795792 -8.1875 91.1875 C-3.60465131 86.23710455 -3.71826715 79.73920854 -3.65625 73.3359375 C-4.82918613 66.38456601 -10.34111214 61.74788625 -15.0625 56.875 C-20.03665089 51.63783921 -24.66663568 46.54351724 -28.1875 40.1875 C-28.80625 39.15625 -29.425 38.125 -30.0625 37.0625 C-32.71630414 30.13044192 -32.32553501 21.65635587 -30.05078125 14.72265625 C-27.35696137 9.002708 -24.67824425 4.43712415 -19.1875 1.1875 C-12.84394742 -0.1150428 -6.45441281 0.00389524 0 0 Z " fill="#F2F2F2" transform="translate(717.1875,136.8125)"/>
<path d="M0 0 C2.74639017 2.60455782 3.00762897 4.06872948 3.43359375 7.90625 C3.45698165 9.43732193 3.45717251 10.96887582 3.4375 12.5 C3.43137695 13.30010498 3.42525391 14.10020996 3.41894531 14.92456055 C3.20608054 23.0764628 1.40539658 30.07118559 -2.875 37.0625 C-8.48105144 42.17389984 -13.66869872 42.39913084 -20.875 42.1875 C-21.75414062 42.17396484 -22.63328125 42.16042969 -23.5390625 42.14648438 C-25.69297552 42.11136623 -27.84657004 42.05756694 -30 42 C-29.86155153 45.79197449 -29.71299256 49.5834859 -29.5625 53.375 C-29.52318359 54.45523438 -29.48386719 55.53546875 -29.44335938 56.6484375 C-29.38051758 58.1953125 -29.38051758 58.1953125 -29.31640625 59.7734375 C-29.27974854 60.72653809 -29.24309082 61.67963867 -29.20532227 62.66162109 C-29.14236535 65.02132349 -29.14236535 65.02132349 -28 67 C-25.31243045 67.02720824 -22.62514202 67.0469388 -19.9375 67.0625 C-18.80924805 67.07506836 -18.80924805 67.07506836 -17.65820312 67.08789062 C-12.99366882 67.10808341 -8.60076827 66.77595959 -4 66 C-4.495 71.94 -4.495 71.94 -5 78 C-6.65141795 78.48166357 -8.30394171 78.95976462 -9.9609375 79.421875 C-11.85770018 79.95965446 -13.74206607 80.54064119 -15.625 81.125 C-22.02036594 82.64296623 -29.45906291 83.67528207 -35.54296875 80.796875 C-39.03590915 78.277377 -41.42654355 76.05389609 -43 72 C-43.21614282 69.31238208 -43.32786987 66.73125896 -43.3359375 64.04296875 C-43.3425943 63.26294998 -43.3492511 62.48293121 -43.35610962 61.67927551 C-43.3662286 60.02424466 -43.37092687 58.36917308 -43.37060547 56.71411133 C-43.37491946 54.23380739 -43.41107661 51.75537273 -43.44921875 49.27539062 C-43.56318655 33.17486773 -40.83822481 16.77803345 -29.5390625 4.46484375 C-21.10546537 -3.56205708 -10.26696719 -5.86683839 0 0 Z " fill="#F2F2F2" transform="translate(478,167)"/>
<path d="M0 0 C3.02499092 1.45243246 5.34331723 2.78081723 7.7265625 5.1640625 C9.6279802 19.45471764 6.04148147 34.19153009 3.69120789 48.25772095 C2.52142445 55.29956775 1.55892775 62.36365718 0.62768555 69.44018555 C0.06661829 73.69674796 -0.53413336 77.93359991 -1.2734375 82.1640625 C-3.06477728 82.21798243 -4.85657649 82.25681821 -6.6484375 82.2890625 C-7.64617188 82.31226563 -8.64390625 82.33546875 -9.671875 82.359375 C-12.2734375 82.1640625 -12.2734375 82.1640625 -14.2734375 80.1640625 C-14.94735586 64.97843543 -11.38210306 49.1332053 -9.2734375 34.1640625 C-9.11520508 33.03822754 -8.95697266 31.91239258 -8.79394531 30.75244141 C-7.96726278 24.88765783 -7.12734058 19.0249427 -6.2734375 13.1640625 C-7.87912416 13.44724176 -9.48295797 13.74094041 -11.0859375 14.0390625 C-11.97925781 14.20148438 -12.87257813 14.36390625 -13.79296875 14.53125 C-16.50071596 15.07594699 -16.50071596 15.07594699 -19.2734375 17.1640625 C-20.5934375 17.1640625 -21.9134375 17.1640625 -23.2734375 17.1640625 C-23.21414063 18.45054687 -23.15484375 19.73703125 -23.09375 21.0625 C-23.09657034 29.08073578 -24.74887468 36.92199501 -26.1484375 44.7890625 C-26.69249516 47.88456298 -27.23112835 50.98095972 -27.765625 54.078125 C-27.96209625 55.2108786 -27.96209625 55.2108786 -28.16253662 56.36651611 C-29.27371517 62.89436171 -30.10123501 69.43850887 -30.84814453 76.01708984 C-31.2734375 79.1640625 -31.2734375 79.1640625 -32.2734375 82.1640625 C-34.06477728 82.21798243 -35.85657649 82.25681821 -37.6484375 82.2890625 C-38.64617188 82.31226563 -39.64390625 82.33546875 -40.671875 82.359375 C-43.2734375 82.1640625 -43.2734375 82.1640625 -45.2734375 80.1640625 C-45.51255548 72.07959748 -44.15372832 63.9111734 -42.9140625 55.9375 C-42.64385503 54.16982511 -42.37409407 52.40208192 -42.10473633 50.63427734 C-41.96685699 49.73167175 -41.82897766 48.82906616 -41.68692017 47.89910889 C-41.14940388 44.34362254 -40.63227635 40.78536038 -40.11784363 37.22647095 C-39.61447059 33.74533526 -39.10407126 30.26524331 -38.59350586 26.78515625 C-38.33432885 25.0094547 -38.07756596 23.23339942 -37.82299805 21.45703125 C-37.44699431 18.83756225 -37.06225985 16.21950375 -36.67578125 13.6015625 C-36.56427231 12.80999756 -36.45276337 12.01843262 -36.33787537 11.20288086 C-35.78848384 7.53675908 -35.24442863 4.3454964 -33.2734375 1.1640625 C-31.48209772 1.11014257 -29.69029851 1.07130679 -27.8984375 1.0390625 C-26.90070312 1.01585937 -25.90296875 0.99265625 -24.875 0.96875 C-22.2734375 1.1640625 -22.2734375 1.1640625 -20.2734375 3.1640625 C-19.72816406 2.8753125 -19.18289063 2.5865625 -18.62109375 2.2890625 C-12.35590795 -0.79533666 -6.77971223 -2.49288388 0 0 Z " fill="#F0F0F0" transform="translate(663.2734375,164.8359375)"/>
<path d="M0 0 C4.48785558 1.24370191 7.14459638 3.31302269 10 7 C10.51611901 9.91455439 10.7189152 12.10455223 10.625 15 C10.60880615 15.74749512 10.5926123 16.49499023 10.57592773 17.26513672 C10.17129721 26.23588148 7.89691326 34.76155659 1.4375 41.3125 C-5.63781416 46.23129717 -15.80334297 44.53777634 -24 44 C-23.92322021 44.69109863 -23.84644043 45.38219727 -23.76733398 46.09423828 C-22.9002652 54.09977749 -22.92620565 61.95641531 -23 70 C-10.625 69.505 -10.625 69.505 2 69 C2 77 2 77 1 80 C-5.85835789 82.93929624 -13.26257279 83.21494134 -20.625 83.3125 C-21.36234375 83.34150391 -22.0996875 83.37050781 -22.859375 83.40039062 C-26.43104666 83.44199612 -28.72579301 83.15900984 -31.8359375 81.35546875 C-36.1623027 76.6464467 -37.38206231 72.36181932 -37.43359375 66.046875 C-37.44403969 65.06666382 -37.44403969 65.06666382 -37.45469666 64.06665039 C-37.46856631 61.96058509 -37.45610817 59.85601452 -37.4375 57.75 C-37.43445862 57.03235474 -37.43141724 56.31470947 -37.42828369 55.57531738 C-37.31117439 36.953377 -34.99582571 19.2522727 -22.125 4.75 C-15.41393318 -1.65685638 -8.70775216 -1.40721808 0 0 Z " fill="#F2F2F2" transform="translate(985,165)"/>
<path d="M0 0 C4.48785558 1.24370191 7.14459638 3.31302269 10 7 C10.51611901 9.91455439 10.7189152 12.10455223 10.625 15 C10.60880615 15.74749512 10.5926123 16.49499023 10.57592773 17.26513672 C10.17129721 26.23588148 7.89691326 34.76155659 1.4375 41.3125 C-5.63781416 46.23129717 -15.80334297 44.53777634 -24 44 C-23.92322021 44.69109863 -23.84644043 45.38219727 -23.76733398 46.09423828 C-22.9002652 54.09977749 -22.92620565 61.95641531 -23 70 C-10.625 69.505 -10.625 69.505 2 69 C2 77 2 77 1 80 C-5.85835789 82.93929624 -13.26257279 83.21494134 -20.625 83.3125 C-21.36234375 83.34150391 -22.0996875 83.37050781 -22.859375 83.40039062 C-26.43104666 83.44199612 -28.72579301 83.15900984 -31.8359375 81.35546875 C-36.1623027 76.6464467 -37.38206231 72.36181932 -37.43359375 66.046875 C-37.44403969 65.06666382 -37.44403969 65.06666382 -37.45469666 64.06665039 C-37.46856631 61.96058509 -37.45610817 59.85601452 -37.4375 57.75 C-37.43445862 57.03235474 -37.43141724 56.31470947 -37.42828369 55.57531738 C-37.31117439 36.953377 -34.99582571 19.2522727 -22.125 4.75 C-15.41393318 -1.65685638 -8.70775216 -1.40721808 0 0 Z " fill="#F2F2F2" transform="translate(891,165)"/>
<path d="M0 0 C1.33802265 4.123494 2.66962301 8.24903352 4 12.375 C4.3815625 13.550625 4.763125 14.72625 5.15625 15.9375 C5.69765625 17.61972656 5.69765625 17.61972656 6.25 19.3359375 C6.58515625 20.37282715 6.9203125 21.4097168 7.265625 22.47802734 C8 25 8 25 8 27 C10.64 27.33 13.28 27.66 16 28 C16.19912394 32.00124233 16.34353456 36.00053573 16.43945312 40.00561523 C16.47946385 41.36485056 16.53389777 42.72374629 16.60351562 44.08178711 C17.16453797 55.31460953 17.16453797 55.31460953 14.32421875 59.42529297 C12.29199256 61.24307971 10.370021 62.65882321 8 64 C7.40251953 64.37785645 6.80503906 64.75571289 6.18945312 65.14501953 C1.25864335 67.07049855 -4.50579191 66.41227847 -9.75390625 66.42553711 C-11.99329081 66.43746427 -14.22994411 66.4866969 -16.46875 66.53710938 C-17.89581994 66.54657124 -19.32290672 66.55380741 -20.75 66.55859375 C-22.69132812 66.57877563 -22.69132812 66.57877563 -24.671875 66.59936523 C-28 66 -28 66 -30.390625 63.59008789 C-33.86348385 58.00095567 -33.33583757 52.79435614 -33.4375 46.3125 C-33.48326172 45.14009766 -33.52902344 43.96769531 -33.57617188 42.75976562 C-33.70279426 33.00984216 -33.70279426 33.00984216 -30.55859375 28.6953125 C-27.98030617 26.23458415 -26.01096701 25.55473452 -22.4765625 25.31640625 C-20.857951 25.3624643 -19.24001984 25.44530159 -17.625 25.5625 C-16.79355469 25.59408203 -15.96210938 25.62566406 -15.10546875 25.65820312 C-13.06877338 25.74013915 -11.03391273 25.86568501 -9 26 C-9.33 24.741875 -9.66 23.48375 -10 22.1875 C-11.2655427 16.33090095 -12.62574309 9.62826785 -10.08984375 3.96875 C-7.09046107 -0.12044054 -4.77595725 -0.24475127 0 0 Z " fill="#6E97C7" transform="translate(297,257)"/>
<path d="M0 0 C15.02606979 -0.86027117 15.02606979 -0.86027117 18.8125 2.125 C26.02019406 11.59796933 22.8941375 24.6100632 21.45581055 35.67773438 C21.18982695 37.73202804 20.93691144 39.78762225 20.68554688 41.84375 C17.26294966 69.2020469 17.26294966 69.2020469 11 78 C10.49210937 78.83917969 9.98421875 79.67835938 9.4609375 80.54296875 C7.15005229 83.82605456 5.19690766 86.5591713 1.07275391 87.38671875 C-3.65071877 87.77344838 -8.29249363 87.46275245 -13 87 C-13.48782999 76.61102809 -12.02522349 67.12139663 -10 57 C-7.77460949 45.80126066 -6.03089534 34.60490353 -4.53344727 23.28588867 C-3.45806727 15.3992112 -1.91932481 7.72448265 0 0 Z " fill="#080808" transform="translate(392,148)"/>
<path d="M0 0 C0.86936691 -0.00570007 1.73873383 -0.01140015 2.63444519 -0.01727295 C4.47446477 -0.02671778 6.31450123 -0.03325488 8.15454102 -0.03710938 C10.95945019 -0.04680237 13.76362254 -0.0778251 16.56835938 -0.109375 C18.35806858 -0.11590668 20.14778301 -0.1211565 21.9375 -0.125 C23.18935844 -0.1435202 23.18935844 -0.1435202 24.46650696 -0.16241455 C29.4529395 -0.14348842 32.83651379 0.46063338 37.16796875 3.203125 C40.56159176 6.93611031 40.55981531 10.55714582 40.38671875 15.375 C39.36394539 28.59799846 39.36394539 28.59799846 35.79296875 33.390625 C33.16796875 35.203125 33.16796875 35.203125 29.16796875 36.203125 C28.83796875 39.833125 28.50796875 43.463125 28.16796875 47.203125 C23.1708094 45.70163111 18.72261751 43.58283193 14.10546875 41.203125 C6.33358515 37.21976405 0.90533459 34.9757314 -7.9921875 35.1328125 C-11.22511915 34.07443873 -11.57129397 33.60361113 -13.17578125 30.75 C-15.20861165 26.02373506 -15.39464301 21.66331261 -15.26953125 16.578125 C-15.27662109 15.75828125 -15.28371094 14.9384375 -15.29101562 14.09375 C-15.23893495 9.1100304 -14.68716191 5.46230815 -11.83203125 1.203125 C-7.89147864 -0.11039254 -4.10943309 0.02077523 0 0 Z " fill="#6D97C8" transform="translate(113.83203125,91.796875)"/>
<path d="M0 0 C1.11503906 0.00644531 2.23007812 0.01289063 3.37890625 0.01953125 C4.53777344 0.03628906 5.69664062 0.05304688 6.890625 0.0703125 C8.65212891 0.08384766 8.65212891 0.08384766 10.44921875 0.09765625 C13.34656036 0.12121187 16.24348941 0.15410598 19.140625 0.1953125 C17.71051021 7.34588644 17.71051021 7.34588644 15.4921875 10.65234375 C12.26701293 12.76852972 9.25792083 12.82904388 5.515625 12.8828125 C0.68043948 12.84608377 0.68043948 12.84608377 -3.859375 14.1953125 C-4.43588186 19.40522632 -4.69261246 23.7966882 -1.546875 28.1953125 C2.09584448 32.49162997 6.3817961 36.14453091 10.65234375 39.80078125 C14.11312406 43.1311711 15.91539122 45.55171467 16.57421875 50.359375 C16.58615113 60.93146144 14.85295584 71.3646906 7.140625 79.1953125 C1.60930981 82.97751033 -3.40557455 83.78110037 -9.984375 83.5703125 C-10.75652344 83.56902344 -11.52867187 83.56773437 -12.32421875 83.56640625 C-16.86684713 83.49675777 -20.58775282 82.9012319 -24.859375 81.1953125 C-24.88649566 79.75791737 -24.90582567 78.32037387 -24.921875 76.8828125 C-24.93347656 76.08230469 -24.94507813 75.28179687 -24.95703125 74.45703125 C-24.859375 72.1953125 -24.859375 72.1953125 -23.859375 69.1953125 C-16.269375 69.1953125 -8.679375 69.1953125 -0.859375 69.1953125 C2.03349726 59.19509193 2.03349726 59.19509193 -0.359375 49.5703125 C-2.43721162 47.59636771 -4.55492964 45.7407688 -6.734375 43.8828125 C-12.69442132 38.77896686 -18.13322237 32.692119 -19.1953125 24.65234375 C-19.2963499 17.8121116 -18.30343223 12.18061584 -14.859375 6.1953125 C-12.359375 3.6953125 -12.359375 3.6953125 -9.859375 2.1953125 C-8.97330566 1.65994873 -8.97330566 1.65994873 -8.06933594 1.11376953 C-5.25732238 -0.05489982 -3.04120483 -0.0310327 0 0 Z " fill="#EFEFEF" transform="translate(509.859375,164.8046875)"/>
<path d="M0 0 C1.33378693 -0.01210762 1.33378693 -0.01210762 2.69451904 -0.02445984 C4.5774135 -0.03828918 6.46033291 -0.04901648 8.34326172 -0.05688477 C11.20979921 -0.0740714 14.07517521 -0.11796419 16.94140625 -0.16210938 C18.77342904 -0.17223919 20.60546162 -0.18075439 22.4375 -0.1875 C23.71442719 -0.21376213 23.71442719 -0.21376213 25.01715088 -0.24055481 C30.83109464 -0.21957249 34.16690384 0.96384303 38.984375 4.23828125 C39.01124779 6.05070177 39.03071215 7.86323358 39.046875 9.67578125 C39.05847656 10.68511719 39.07007813 11.69445312 39.08203125 12.734375 C38.984375 15.23828125 38.984375 15.23828125 37.984375 16.23828125 C34.46085933 16.34035735 30.94296083 16.43699073 27.41796875 16.40429688 C24.30936442 16.49288404 21.92488703 16.56552566 19.34643555 18.40991211 C16.18075427 21.86868059 15.37229828 24.84816851 15.296875 29.42578125 C15.16441414 34.96822254 15.16441414 34.96822254 12.984375 38.23828125 C10.70503927 39.57217822 8.47541489 40.77167422 6.109375 41.92578125 C5.48417969 42.24611328 4.85898438 42.56644531 4.21484375 42.89648438 C0.81128099 44.58387437 -1.13949654 45.23828125 -5.015625 45.23828125 C-5.345625 41.27828125 -5.675625 37.31828125 -6.015625 33.23828125 C-7.665625 33.23828125 -9.315625 33.23828125 -11.015625 33.23828125 C-13.36702973 31.08317439 -13.95260682 29.69552463 -14.38793945 26.53686523 C-14.3849585 25.52954346 -14.38197754 24.52222168 -14.37890625 23.484375 C-14.37826172 22.38287109 -14.37761719 21.28136719 -14.37695312 20.14648438 C-14.36083984 19.00115234 -14.34472656 17.85582031 -14.328125 16.67578125 C-14.33134766 15.52658203 -14.33457031 14.37738281 -14.33789062 13.19335938 C-14.28276582 4.63899249 -14.28276582 4.63899249 -12.015625 1.23828125 C-8.02448379 -0.09209915 -4.16386112 0.03579103 0 0 Z " fill="#6D98C9" transform="translate(81.015625,71.76171875)"/>
<path d="M0 0 C0 0.66 0 1.32 0 2 C1.32 2.33 2.64 2.66 4 3 C4 3.66 4 4.32 4 5 C4.639375 5.12375 5.27875 5.2475 5.9375 5.375 C6.9584375 5.684375 6.9584375 5.684375 8 6 C8.33 6.66 8.66 7.32 9 8 C12.02934491 8.65772428 12.02934491 8.65772428 15 9 C15 8.34 15 7.68 15 7 C19.53472951 2.95551152 22.85844421 1.65051514 28.99609375 1.70703125 C32.14507222 2.16740822 33.834621 3.76900346 36 6 C37.90482364 9.80964727 37.70904923 13.86795447 37 18 C35.18863834 21.20089937 32.6572792 23.48515453 30 26 C29.02105876 26.99247655 28.04605602 27.98884743 27.07421875 28.98828125 C24.09089955 32.03766897 21.09390973 35.06246116 18 38 C17.49484863 38.49838379 16.98969727 38.99676758 16.46923828 39.51025391 C14.17641418 41.63454188 12.65709991 42.95204395 9.484375 43.18359375 C5.97699074 41.51262295 3.74735722 38.95025991 1.25 36.0625 C0.73139404 35.48072998 0.21278809 34.89895996 -0.3215332 34.29956055 C-1.37916742 33.111896 -2.43233603 31.92023942 -3.48095703 30.72460938 C-4.88651404 29.12884359 -6.3099539 27.55260393 -7.74609375 25.984375 C-15.55910938 17.4338107 -15.55910938 17.4338107 -15.46875 10.46484375 C-13.87743645 2.09718668 -7.83829482 -1.10011155 0 0 Z " fill="#6E97C8" transform="translate(193,46)"/>
<path d="M0 0 C7.6656758 3.30506564 13.08092906 10.88632459 17.9765625 17.40234375 C21.09089096 21.40046812 24.42039183 25.20957316 27.73754883 29.03979492 C30.5637085 32.30686324 33.32633094 35.60526983 36 39 C34.50107743 42.89375287 32.32792052 44.49934986 28.875 46.75 C27.96492188 47.36359375 27.05484375 47.9771875 26.1171875 48.609375 C22.28423163 50.31931521 19.09020774 50.74903379 15 50 C12.1425086 48.87140497 9.64433311 47.34191431 7.0625 45.6875 C6.34392822 45.24615723 5.62535645 44.80481445 4.88500977 44.35009766 C2.57561624 42.92165327 0.28633994 41.46502874 -2 40 C-2.80469727 39.48743652 -3.60939453 38.97487305 -4.43847656 38.44677734 C-9.31618185 35.33365941 -14.16683712 32.18178182 -19 29 C-18.45177977 24.79447496 -17.11018394 22.36273775 -14.5625 19 C-13.85222656 18.05511719 -13.14195312 17.11023438 -12.41015625 16.13671875 C-11.61480469 15.10160156 -10.81945312 14.06648437 -10 13 C-9.08191905 11.79826279 -8.16395369 10.59643727 -7.24609375 9.39453125 C-4.84203193 6.25418572 -2.42429001 3.12475085 0 0 Z " fill="#6E97C8" transform="translate(174,206)"/>
<path d="M0 0 C3.63 0 7.26 0 11 0 C11.33 1.32 11.66 2.64 12 4 C12.99 4 13.98 4 15 4 C15 3.34 15 2.68 15 2 C18.25995586 -0.17330391 19.22979966 -0.24921459 23 -0.1875 C23.86625 -0.18105469 24.7325 -0.17460937 25.625 -0.16796875 C28 0 28 0 31 1 C30.34 4.3 29.68 7.6 29 11 C27.55367187 11.36351562 27.55367187 11.36351562 26.078125 11.734375 C24.81484375 12.06953125 23.5515625 12.4046875 22.25 12.75 C20.37054687 13.23726562 20.37054687 13.23726562 18.453125 13.734375 C14.84807278 15.05568373 13.27885237 15.95443095 11 19 C8.74138437 24.00122031 8.59156326 28.98307338 8.25 34.375 C7.48620156 44.4534563 5.8326588 54.27344008 3.9375 64.1875 C3.80162476 64.90162048 3.66574951 65.61574097 3.52575684 66.35150146 C1.2495779 78.25126629 1.2495779 78.25126629 0 82 C-1.81242052 82.02687279 -3.62495233 82.04633715 -5.4375 82.0625 C-6.44683594 82.07410156 -7.45617187 82.08570313 -8.49609375 82.09765625 C-11 82 -11 82 -12 81 C-12.47016093 74.48607309 -11.77940724 68.11821172 -10.7578125 61.6953125 C-10.62937958 60.85008026 -10.50094666 60.00484802 -10.36862183 59.13400269 C-9.96101829 56.46321527 -9.54313081 53.79415718 -9.125 51.125 C-8.85220053 49.34515374 -8.58006036 47.56520629 -8.30859375 45.78515625 C-4.49753385 20.89136042 -4.49753385 20.89136042 -1.875 8.75 C-1.69324219 7.89792969 -1.51148438 7.04585937 -1.32421875 6.16796875 C-0.88519092 4.11146998 -0.44295525 2.05565641 0 0 Z " fill="#F0F0F0" transform="translate(915,165)"/>
<path d="M0 0 C3.96 0 7.92 0 12 0 C11.50595069 11.09055525 10.1107226 21.9241842 8.45898438 32.89404297 C7.94903168 36.3449037 7.46481529 39.79881537 6.984375 43.25390625 C6.81075439 44.4963208 6.63713379 45.73873535 6.45825195 47.01879883 C6.11866804 49.45192634 5.78116574 51.88534556 5.44604492 54.3190918 C4.65142553 59.95883337 3.77443527 65.51460117 2.43041992 71.05151367 C1.70400364 74.33995854 1.3649813 77.6543381 1 81 C-0.97909398 81.02686553 -2.95828971 81.04633375 -4.9375 81.0625 C-6.03964844 81.07410156 -7.14179687 81.08570313 -8.27734375 81.09765625 C-11 81 -11 81 -12 80 C-13.01302786 69.54863889 -10.83204651 59.1390375 -9.125 48.875 C-8.85204629 47.18372561 -8.57990595 45.49231974 -8.30859375 43.80078125 C-7.1340598 36.53347491 -5.89827202 29.29746197 -4.39794922 22.08935547 C-3.60834874 17.94371074 -3.21574588 13.74650118 -2.7890625 9.55078125 C-2.36314198 5.76890076 -1.74121622 3.48243245 0 0 Z " fill="#EFEFEF" transform="translate(540,166)"/>
<path d="M0 0 C1.27484253 0.0165564 1.27484253 0.0165564 2.57543945 0.03344727 C3.68278442 0.04782837 3.68278442 0.04782837 4.8125 0.0625 C3.91144094 9.24596689 2.90939139 18.4140963 1.82055664 27.57714844 C1.60609589 29.40716993 1.39780338 31.23792437 1.19555664 33.06933594 C0.8996359 35.7409685 0.58281386 38.40941554 0.26171875 41.078125 C0.1333387 42.29704437 0.1333387 42.29704437 0.00236511 43.54058838 C-0.76491657 49.64315621 -2.76526976 53.64026976 -7.1875 58.0625 C-9.5703125 58.4765625 -9.5703125 58.4765625 -12.3125 58.6875 C-13.22257813 58.76226562 -14.13265625 58.83703125 -15.0703125 58.9140625 C-15.76898437 58.96304688 -16.46765625 59.01203125 -17.1875 59.0625 C-23.75654463 48.7805171 -21.6202528 36.51361354 -19.16796875 25.07421875 C-17.14311987 16.41877665 -14.90547116 7.25010502 -8.1875 1.0625 C-5.17259443 0.05753148 -3.14568308 -0.04085303 0 0 Z " fill="#080808" transform="translate(594.1875,176.9375)"/>
<path d="M0 0 C2.29141286 -0.05384521 4.58318188 -0.09272087 6.875 -0.125 C8.78925781 -0.15980469 8.78925781 -0.15980469 10.7421875 -0.1953125 C14 0 14 0 16 2 C17.13268051 13.82756914 15.92728516 25.30932992 13.6875 36.9375 C13.47472412 38.04416016 13.26194824 39.15082031 13.04272461 40.29101562 C10.08757997 54.58832873 10.08757997 54.58832873 5 58 C2.37109375 58.14453125 2.37109375 58.14453125 -0.5625 57.8125 C-2.01849609 57.66748047 -2.01849609 57.66748047 -3.50390625 57.51953125 C-6 57 -6 57 -8 55 C-7.97498349 51.91984259 -7.80061965 48.99552749 -7.5 45.9375 C-7.41250488 44.99825684 -7.32500977 44.05901367 -7.23486328 43.09130859 C-5.72200016 28.6051261 -2.76711822 14.28853424 0 0 Z " fill="#070707" transform="translate(758,177)"/>
<path d="M0 0 C4.90841854 0.46238725 7.25037928 1.64291663 10.875 4.9375 C20.3309743 13.01313426 31.09272675 20.1644841 43 24 C43 24.66 43 25.32 43 26 C43.969375 26.103125 44.93875 26.20625 45.9375 26.3125 C48.81084098 26.71970002 51.39022396 27.40948757 54.125 28.375 C59.96088911 30.42056938 65.96131083 31.70152539 72 33 C72.75861328 33.17418457 73.51722656 33.34836914 74.29882812 33.52783203 C91.07477799 36.46028748 110.41769909 34.72021568 126.69921875 29.90625 C130.26462244 28.92734626 133.32033024 28.8498094 137 29 C137 30.32 137 31.64 137 33 C113.85528143 42.1372937 85.10221178 45.30447178 61 38 C60.14873535 37.74234863 59.2974707 37.48469727 58.42041016 37.21923828 C53.74500151 35.78355887 49.08762418 34.29320386 44.45703125 32.71875 C43.69366455 32.46029297 42.93029785 32.20183594 42.14379883 31.93554688 C39.79197706 30.90921946 38.01698345 29.57342218 36 28 C34.51838725 27.3907136 33.01595888 26.83045262 31.5 26.3125 C20.21409523 21.94751036 7.89120213 13.25422795 0 4 C0 2.68 0 1.36 0 0 Z " fill="#6185B1" transform="translate(108,279)"/>
<path d="M0 0 C6.61691701 3.89789651 6.61691701 3.89789651 8.03125 6.7265625 C8.1293231 9.59087392 8.17027649 12.42532134 8.15625 15.2890625 C8.16205078 16.47918945 8.16205078 16.47918945 8.16796875 17.69335938 C8.15788067 23.59993183 8.15788067 23.59993183 7.03125 24.7265625 C5.09060877 24.82649836 3.14633666 24.85737169 1.203125 24.859375 C0.01074219 24.86066406 -1.18164062 24.86195313 -2.41015625 24.86328125 C-4.29541016 24.85748047 -4.29541016 24.85748047 -6.21875 24.8515625 C-7.46011719 24.85542969 -8.70148438 24.85929687 -9.98046875 24.86328125 C-11.77677734 24.86134766 -11.77677734 24.86134766 -13.609375 24.859375 C-14.70797852 24.85824707 -15.80658203 24.85711914 -16.93847656 24.85595703 C-19.73056844 24.736733 -22.25282158 24.36170879 -24.96875 23.7265625 C-25.10414281 20.82915628 -25.20301829 17.93810629 -25.28125 15.0390625 C-25.32314453 14.22244141 -25.36503906 13.40582031 -25.40820312 12.56445312 C-25.49566688 8.24374375 -25.41958266 6.33059846 -22.76171875 2.76953125 C-16.04211961 -2.14564406 -7.77324012 -3.3343109 0 0 Z " fill="#6B93C2" transform="translate(84.96875,291.2734375)"/>
<path d="M0 0 C1.32 0 2.64 0 4 0 C3.37650642 2.52121432 2.75124639 5.04196931 2.125 7.5625 C1.95097656 8.26697266 1.77695313 8.97144531 1.59765625 9.69726562 C0.77945246 12.98523272 -0.06968624 16.22559013 -1.0703125 19.46484375 C-3.4509411 28.51723401 -3.21723508 37.83042658 -3.24023438 47.12597656 C-3.24986495 49.467169 -3.28093173 51.80745281 -3.3125 54.1484375 C-3.41687303 69.17004878 -1.67989749 84.01340081 4.75 97.75 C6.05949688 101.15469189 6.13438171 102.59685488 5 106 C2.7265625 105.97265625 2.7265625 105.97265625 0 105 C-1.51188108 102.42980217 -2.57486793 100.19166582 -3.625 97.4375 C-3.91117187 96.76525391 -4.19734375 96.09300781 -4.4921875 95.40039062 C-9.83704735 82.00179877 -10.47010727 68.15718029 -10.33618164 53.93505859 C-10.3124026 51.23895653 -10.3156729 48.54383821 -10.32226562 45.84765625 C-10.29665393 29.68157189 -8.89726876 13.98142233 0 0 Z " fill="#6388B4" transform="translate(79,137)"/>
<path d="M0 0 C2.37109375 0.25390625 2.37109375 0.25390625 5 1 C17.51418065 17.91213551 15.69114715 52.11287834 13.375 71.4375 C12.31869325 77.3528178 10.71962051 83.14768627 9.125 88.9375 C8.75834229 90.27155884 8.75834229 90.27155884 8.38427734 91.63256836 C6.8400874 96.93890269 4.88399255 101.29069572 2 106 C1.23959428 108.26985894 1.23959428 108.26985894 1 110 C-0.65 110 -2.3 110 -4 110 C-3.40872415 102.9686115 -1.38369866 97.25515652 1.296875 90.76953125 C6.17390268 78.32685805 7.49513295 65.60308534 7.33618164 52.35302734 C7.3123454 50.23627084 7.3156885 48.12076565 7.32226562 46.00390625 C7.30075181 34.78265748 6.08387855 24.25568097 2.375 13.625 C0.76112325 8.99190437 -0.29198813 4.96379817 0 0 Z " fill="#6288B4" transform="translate(317,137)"/>
<path d="M0 0 C4.95 0 9.9 0 15 0 C15.26636729 14.47262263 14.54535857 28.60884831 13 43 C8.38 43 3.76 43 -1 43 C-1.12401179 28.62841185 -0.82161434 14.34890763 0 0 Z " fill="#6C96C6" transform="translate(318,281)"/>
<path d="M0 0 C5.60641746 0.44920448 8.97373173 2.60765245 13.4375 5.75 C14.38206055 6.39582031 14.38206055 6.39582031 15.34570312 7.0546875 C19.60464005 9.97860308 23.80260324 12.98870633 28 16 C27.64599609 17.90893555 27.64599609 17.90893555 27 20 C24.6640625 21.45703125 24.6640625 21.45703125 21.625 22.8125 C16.20420021 25.33876069 11.37486862 28.26366621 6.47265625 31.6796875 C3.69124309 33.16486546 2.09522953 33.10889847 -1 33 C-1.02913072 28.62501407 -1.04684286 24.25005326 -1.0625 19.875 C-1.07087891 18.6375 -1.07925781 17.4 -1.08789062 16.125 C-1.09111328 14.92617187 -1.09433594 13.72734375 -1.09765625 12.4921875 C-1.10289307 11.39245605 -1.10812988 10.29272461 -1.11352539 9.15966797 C-1.0008558 6.02381895 -0.58626376 3.07940617 0 0 Z " fill="#0C1016" transform="translate(297,70)"/>
<path d="M0 0 C3.19936593 2.18841387 5.25114025 4.54126783 7 8 C7.68808622 13.05361099 6.77222372 16.77938831 4.0625 21.0625 C0.23271696 24.66017497 -3.21034475 24.38877559 -8.29296875 24.35546875 C-11 24 -11 24 -14.125 21.6875 C-16.64582767 18.07431367 -17.17220277 15.37376302 -17.25 11.0625 C-17.27578125 10.20785156 -17.3015625 9.35320312 -17.328125 8.47265625 C-16.9314937 5.48375608 -16.04662449 4.18209845 -14 2 C-9.62475176 -0.03499918 -4.74624874 -1.30931 0 0 Z " fill="#10151C" transform="translate(205,176)"/>
<path d="M0 0 C3.70390021 2.02666238 5.65363011 3.48044516 8 7 C8.58760427 11.50242236 8.50290275 15.68686505 6.875 19.9375 C3.73653297 23.38981374 0.58443838 24.76893607 -4 25.4375 C-7.88576111 24.8708265 -9.97792261 23.47260877 -13 21 C-15.74357008 16.5990514 -15.79223817 12.03071237 -15 7 C-11.65731787 0.5846216 -6.88262735 -0.5832735 0 0 Z " fill="#6B93C3" transform="translate(81,262)"/>
<path d="M0 0 C4.19001615 1.63562076 6.98233899 4.72303156 10.0625 7.875 C10.59166016 8.40480469 11.12082031 8.93460938 11.66601562 9.48046875 C17.50906694 15.38950183 17.50906694 15.38950183 19 18 C18.9765625 20.046875 18.9765625 20.046875 18 22 C13.94851062 25.38400262 9.4677602 27.62040685 4.375 28.9375 C-2.1410255 27.12749292 -5.61337798 21.16149903 -9.125 15.6875 C-10 13 -10 13 -9.3125 11.12890625 C-7.73524031 8.57055348 -5.89938263 6.47029063 -3.875 4.25 C-3.15054688 3.45078125 -2.42609375 2.6515625 -1.6796875 1.828125 C-0.84824219 0.92320312 -0.84824219 0.92320312 0 0 Z " fill="#6C95C5" transform="translate(212,216)"/>
<path d="M0 0 C4.33304076 0.64465202 7.86672065 2.18925122 11.8125 4.0625 C12.97394531 4.61035156 14.13539062 5.15820312 15.33203125 5.72265625 C16.21246094 6.14417969 17.09289063 6.56570312 18 7 C18 9.31 18 11.62 18 14 C16.68 14 15.36 14 14 14 C14 14.66 14 15.32 14 16 C15.32 16.66 16.64 17.32 18 18 C18 19.98 18 21.96 18 24 C11.73 24 5.46 24 -1 24 C-1 21.69 -1 19.38 -1 17 C-0.34 17 0.32 17 1 17 C0.67 16.34 0.34 15.68 0 15 C-0.04166002 12.6670386 -0.04166002 10.3329614 0 8 C0 7.34 0 6.68 0 6 C0 4 0 2 0 0 Z " fill="#E6E6E6" transform="translate(1034,188)"/>
<path d="M0 0 C2.62832343 2.62832343 2.35861892 3.95934968 2.4375 7.625 C2.35888995 13.56363224 0.99594868 17.58023858 -3 22 C-5.76452033 23.38226016 -8.0461363 23.09525387 -11.125 23.0625 C-12.22070312 23.05347656 -13.31640625 23.04445312 -14.4453125 23.03515625 C-15.70988281 23.01775391 -15.70988281 23.01775391 -17 23 C-16.55535646 15.5177225 -15.92337125 8.56285871 -11 2.5625 C-7.48544811 -0.18324366 -4.32933752 -0.27634069 0 0 Z " fill="#151515" transform="translate(980,176)"/>
<path d="M0 0 C2.62832343 2.62832343 2.35861892 3.95934968 2.4375 7.625 C2.35888995 13.56363224 0.99594868 17.58023858 -3 22 C-5.76452033 23.38226016 -8.0461363 23.09525387 -11.125 23.0625 C-12.22070312 23.05347656 -13.31640625 23.04445312 -14.4453125 23.03515625 C-15.70988281 23.01775391 -15.70988281 23.01775391 -17 23 C-16.55535646 15.5177225 -15.92337125 8.56285871 -11 2.5625 C-7.48544811 -0.18324366 -4.32933752 -0.27634069 0 0 Z " fill="#151515" transform="translate(886,176)"/>
<path d="M0 0 C1.76344942 1.76344942 1.25558048 4.16888443 1.3125 6.5625 C1.27250536 13.27360099 -0.12969389 18.12969389 -5 23 C-7.8203125 23.1953125 -7.8203125 23.1953125 -11.125 23.125 C-12.22070312 23.10695312 -13.31640625 23.08890625 -14.4453125 23.0703125 C-15.28835938 23.04710937 -16.13140625 23.02390625 -17 23 C-16.71903217 14.44452965 -16.00855595 8.81026714 -10.4375 2.125 C-7.22790957 -0.38685338 -3.889949 -0.16912822 0 0 Z " fill="#101010" transform="translate(467,176)"/>
<path d="M0 0 C4.08560595 1.15462777 5.50012014 2.25018022 7.875 5.8125 C8.73251146 10.85317604 8.98327063 15.22397877 6 19.5 C3.875 20.8125 3.875 20.8125 1.875 20.8125 C1.875 21.4725 1.875 22.1325 1.875 22.8125 C-0.72948667 23.53596852 -2.5958669 23.93700191 -5.25 23.3125 C-8.86813609 20.41799113 -9.81665371 16.26172757 -10.75 11.875 C-9.58947005 6.18840324 -5.65993314 1.47158262 0 0 Z " fill="#E7E7E7" transform="translate(1003.125,268.1875)"/>
<path d="M0 0 C4.51315789 2.02631579 4.51315789 2.02631579 6 5 C6.14716542 6.80843663 6.2210887 8.62331566 6.25 10.4375 C6.27578125 11.40558594 6.3015625 12.37367188 6.328125 13.37109375 C6 16 6 16 4.78515625 17.80859375 C1.77852932 19.81520472 -0.95280347 19.65520896 -4.48046875 19.53125 C-8.16590306 18.75416618 -9.83025185 17.22594007 -12.00390625 14.21484375 C-13.76820928 10.29186407 -13.9851406 6.1773016 -13 2 C-8.75354956 -0.83096696 -4.98585744 -0.53277903 0 0 Z " fill="#E7E7E7" transform="translate(1044,166)"/>
<path d="M0 0 C1.65 0.33 3.3 0.66 5 1 C5.38218767 2.65614657 5.71395102 4.32457024 6 6 C5.67 6.33 5.34 6.66 5 7 C5.99 7.33 6.98 7.66 8 8 C9.1875 11.5625 9.1875 11.5625 10 15 C3.86457356 17.11219599 -1.48610336 18.68567333 -8 18 C-11.36721579 15.97967053 -12.06218377 12.67912521 -13 9 C-13.1875 5.6875 -13.1875 5.6875 -13 3 C-12 2 -12 2 -9.27734375 1.90234375 C-7.62412109 1.91974609 -7.62412109 1.91974609 -5.9375 1.9375 C-4.28041016 1.95103516 -4.28041016 1.95103516 -2.58984375 1.96484375 C-1.73519531 1.97644531 -0.88054687 1.98804688 0 2 C0 1.34 0 0.68 0 0 Z " fill="#DFDFDF" transform="translate(1035,143)"/>
<path d="M0 0 C3.47215459 0.88650755 4.81228134 1.88912873 6.9375 4.75 C6.9375 5.74 6.9375 6.73 6.9375 7.75 C9.4125 8.245 9.4125 8.245 11.9375 8.75 C11.6075 10.73 11.2775 12.71 10.9375 14.75 C9.6175 14.75 8.2975 14.75 6.9375 14.75 C7.494375 15.8946875 7.494375 15.8946875 8.0625 17.0625 C8.35125 17.949375 8.64 18.83625 8.9375 19.75 C8.2775 20.74 7.6175 21.73 6.9375 22.75 C1.05031993 22.455641 -3.06354411 19.93758589 -7.0625 15.75 C-8.47955879 12.10613453 -8.61805254 10.1739162 -7.1953125 6.52734375 C-5.21605224 2.85989092 -4.14825757 1.01589981 0 0 Z " fill="#E4E4E4" transform="translate(1031.0625,230.25)"/>
<path d="M0 0 C1.4540625 0.0309375 1.4540625 0.0309375 2.9375 0.0625 C3.03695415 6.17340483 3.0087828 12.03653427 1.9375 18.0625 C-0.3725 18.0625 -2.6825 18.0625 -5.0625 18.0625 C-5.0625 16.4125 -5.0625 14.7625 -5.0625 13.0625 C-6.7125 13.0625 -8.3625 13.0625 -10.0625 13.0625 C-10.0625 15.0425 -10.0625 17.0225 -10.0625 19.0625 C-12.3725 19.0625 -14.6825 19.0625 -17.0625 19.0625 C-16.92055236 16.99972893 -16.77377784 14.93728969 -16.625 12.875 C-16.54378906 11.72644531 -16.46257813 10.57789063 -16.37890625 9.39453125 C-16.10846188 6.54651829 -15.68728253 3.85039518 -15.0625 1.0625 C-12.7525 1.0625 -10.4425 1.0625 -8.0625 1.0625 C-8.0625 2.7125 -8.0625 4.3625 -8.0625 6.0625 C-6.7425 6.0625 -5.4225 6.0625 -4.0625 6.0625 C-4.083125 5.258125 -4.10375 4.45375 -4.125 3.625 C-4.03366838 -0.11959638 -3.80090148 0.07756942 0 0 Z " fill="#E4E4E4" transform="translate(951.0625,292.9375)"/>
<path d="M0 0 C3.87500208 0.41517879 6.19437851 2.41587495 9 5 C11.28333577 8.04444769 11.40937584 11.20308423 11.33203125 14.96484375 C10.73420038 18.62919532 8.58384337 21.41615663 6 24 C2.67657654 24.64847287 0.7000271 24.46498151 -2.140625 22.578125 C-7.58339996 17.99679643 -7.58339996 17.99679643 -8.85546875 14.953125 C-9 13 -9 13 -7 10 C-4.625 9.5 -4.625 9.5 -2 10 C0.1875 12.4375 0.1875 12.4375 2 15 C2.66 15.33 3.32 15.66 4 16 C3.38245741 14.68397477 2.75571258 13.37226444 2.125 12.0625 C1.60292969 10.96615234 1.60292969 10.96615234 1.0703125 9.84765625 C0.1315023 7.83667541 0.1315023 7.83667541 -2 7 C-1.125 1.125 -1.125 1.125 0 0 Z " fill="#E5E5E5" transform="translate(1018,249)"/>
<path d="M0 0 C3.77626785 1.81302297 5.93679529 3.31771411 8.84765625 6.3671875 C9.53515625 9.4296875 9.53515625 9.4296875 8.84765625 12.3671875 C6.03155611 15.60996948 4.44933659 16.30599967 0.16015625 16.7421875 C-3.15234375 16.3671875 -3.15234375 16.3671875 -5.15234375 14.3671875 C-7.05979191 13.98269697 -7.05979191 13.98269697 -9.15234375 13.8671875 C-12.93012153 13.58940972 -12.93012153 13.58940972 -15.15234375 11.3671875 C-15.06717876 8.26194107 -14.10891545 7.32531285 -11.859375 5.15625 C-10.42658203 4.08503906 -10.42658203 4.08503906 -8.96484375 2.9921875 C-7.55138672 1.89777344 -7.55138672 1.89777344 -6.109375 0.78125 C-3.15234375 -0.6328125 -3.15234375 -0.6328125 0 0 Z " fill="#E1E1E1" transform="translate(872.15234375,268.6328125)"/>
<path d="M0 0 C1.32 0.66 2.64 1.32 4 2 C4.72909456 4.43031519 5 6.47161625 5 9 C5.78375 8.95875 6.5675 8.9175 7.375 8.875 C10 9 10 9 12 11 C11.953125 12.88671875 11.953125 12.88671875 11 15 C8.671875 16.95703125 8.671875 16.95703125 5.75 18.8125 C4.79609375 19.43769531 3.8421875 20.06289062 2.859375 20.70703125 C0 22 0 22 -2.7734375 21.8515625 C-5 21 -5 21 -6.375 18.5625 C-7 16 -7 16 -6 14 C-7.423125 13.9071875 -7.423125 13.9071875 -8.875 13.8125 C-9.90625 13.544375 -10.9375 13.27625 -12 13 C-12.66 11.35 -13.32 9.7 -14 8 C-10.37 8.33 -6.74 8.66 -3 9 C-2.01 6.03 -1.02 3.06 0 0 Z " fill="#E4E4E4" transform="translate(1020,120)"/>
<path d="M0 0 C0.33 0.33 0.66 0.66 1 1 C0.71269945 3.33944736 0.38063221 5.6739143 0 8 C-3.3 8 -6.6 8 -10 8 C-10 8.99 -10 9.98 -10 11 C-7.69 11.66 -5.38 12.32 -3 13 C-3.66 14.98 -4.32 16.96 -5 19 C-12.91470588 19.60882353 -12.91470588 19.60882353 -16.5625 17.5625 C-18.74241428 13.67656586 -18.94387967 10.3373518 -18 6 C-14.41247795 -1.40114844 -7.28287553 -0.89478564 0 0 Z " fill="#D8D8D8" transform="translate(930,292)"/>
<path d="M0 0 C2.4375 1.5625 2.4375 1.5625 4 4 C4.65764741 8.43911998 4.30885476 10.46199493 2.0625 14.375 C0 17 0 17 -1 18 C-7.46153846 18.35897436 -7.46153846 18.35897436 -11 16 C-12.24271205 12.27186385 -12.65451162 8.86688473 -12 5 C-8.63554266 0.10624387 -5.8387112 -0.95542547 0 0 Z " fill="#E9E9E9" transform="translate(553,139)"/>
<path d="M0 0 C-0.66 6.93 -1.32 13.86 -2 21 C-3.98 21.33 -5.96 21.66 -8 22 C-8.39832031 21.31292969 -8.79664063 20.62585938 -9.20703125 19.91796875 C-9.73683594 19.01691406 -10.26664063 18.11585938 -10.8125 17.1875 C-11.33457031 16.29417969 -11.85664062 15.40085937 -12.39453125 14.48046875 C-13.85898009 12.01152891 -13.85898009 12.01152891 -15.69921875 10.36328125 C-17 9 -17 9 -17 6 C-13.6875 5.3125 -13.6875 5.3125 -10 5 C-8.0625 6.4375 -8.0625 6.4375 -7 8 C-7 6.02 -7 4.04 -7 2 C-4.35261084 0.5393715 -3.10551666 0 0 0 Z " fill="#E4E4E4" transform="translate(989,280)"/>
<path d="M0 0 C5.82271337 -0.59720137 9.9209404 1.471757 15 4 C15 5.65 15 7.3 15 9 C13.948125 9 12.89625 9 11.8125 9 C8.02019816 9.56912919 8.02019816 9.56912919 6.6328125 11.84765625 C5.84096351 13.31490584 5.05186253 14.78364208 4.265625 16.25390625 C3.63914062 17.11822266 3.63914062 17.11822266 3 18 C-0.3125 18.5 -0.3125 18.5 -3 18 C-3.68359375 16.328125 -3.68359375 16.328125 -4 14 C-2.78515625 11.421875 -2.78515625 11.421875 -1.0625 8.75 C-0.49660156 7.85796875 0.06929687 6.9659375 0.65234375 6.046875 C1.09707031 5.37140625 1.54179688 4.6959375 2 4 C1.01 4 0.02 4 -1 4 C-0.67 2.68 -0.34 1.36 0 0 Z " fill="#E0E0E0" transform="translate(897,286)"/>
<path d="M0 0 C5.62091474 3.0266464 10.97760127 6.04619675 16 10 C16 10.66 16 11.32 16 12 C11.61538462 15 11.61538462 15 9 15 C9 15.66 9 16.32 9 17 C4.545 18.485 4.545 18.485 0 20 C0 13.4 0 6.8 0 0 Z " fill="#678EBC" transform="translate(301,76)"/>
<path d="M0 0 C2.59335905 2.59335905 2.27726563 4.48747032 2.36328125 8.02734375 C1.88572042 10.62055043 1.1305072 11.46810876 -1 13 C-3.19140625 13.3984375 -3.19140625 13.3984375 -5.5625 13.375 C-6.74005859 13.38660156 -6.74005859 13.38660156 -7.94140625 13.3984375 C-8.62074219 13.26695312 -9.30007812 13.13546875 -10 13 C-12.52556697 9.21164955 -12.72113158 6.44697806 -12 2 C-8.83992679 -2.34510066 -4.69167327 -0.98373794 0 0 Z " fill="#6A91C0" transform="translate(205,182)"/>
<path d="M0 0 C-1.2958353 3.78279194 -2.74678943 6.11145918 -5.625 8.875 C-6.33011719 9.555625 -7.03523438 10.23625 -7.76171875 10.9375 C-10.59380754 13.54717344 -13.48703503 16.07519582 -16.43359375 18.5546875 C-18.11503767 19.93500379 -18.11503767 19.93500379 -19 22 C-20.65 22 -22.3 22 -24 22 C-23.58869894 16.75971983 -22.16775125 14.57504045 -18.375 11 C-17.47007812 10.14664063 -16.56515625 9.29328125 -15.6328125 8.4140625 C-14.32957031 7.21910156 -14.32957031 7.21910156 -13 6 C-12.33742188 5.34773437 -11.67484375 4.69546875 -10.9921875 4.0234375 C-7.36924753 0.59545394 -5.22025257 -0.7639394 0 0 Z " fill="#6287B3" transform="translate(276,127)"/>
<path d="M0 0 C2.31 0.33 4.62 0.66 7 1 C6.47539239 5.28049394 5.13014795 7.57623007 2.3125 10.8125 C1.64863281 11.60269531 0.98476563 12.39289063 0.30078125 13.20703125 C-2.62323896 15.48568197 -4.38319449 15.34667521 -8 15 C-8.7421875 12.76171875 -8.7421875 12.76171875 -9 10 C-7.3828125 7.83203125 -7.3828125 7.83203125 -5.125 5.8125 C-2.14743516 3.22146652 -2.14743516 3.22146652 0 0 Z " fill="#E5E5E5" transform="translate(886,281)"/>
<path d="M0 0 C-1.40164889 4.76560621 -4.15411474 7.95882443 -8 11 C-8.66 11 -9.32 11 -10 11 C-10 11.66 -10 12.32 -10 13 C-11.32 13 -12.64 13 -14 13 C-14.5 10.4375 -14.5 10.4375 -14 7 C-10.19433775 2.25712242 -6.35158484 -1.11152735 0 0 Z " fill="#6287B2" transform="translate(119,246)"/>
<path d="M0 0 C1.65 0 3.3 0 5 0 C5.02690844 2.62506802 5.04679404 5.24986173 5.0625 7.875 C5.07087891 8.62136719 5.07925781 9.36773437 5.08789062 10.13671875 C5.11328125 15.7734375 5.11328125 15.7734375 4 18 C2.68 18 1.36 18 0 18 C0 12.06 0 6.12 0 0 Z " fill="#6489B6" transform="translate(200,110)"/>
<path d="M0 0 C1.134375 0.020625 2.26875 0.04125 3.4375 0.0625 C4.6875 6.6875 4.6875 6.6875 2.4375 10.0625 C-0.41800958 10.50180917 -1.94620746 10.43227553 -4.4375 8.9375 C-5.5625 7.0625 -5.5625 7.0625 -5.3125 3.9375 C-4.30502874 0.07552682 -4.30502874 0.07552682 0 0 Z " fill="#5C7FA9" transform="translate(259.5625,261.9375)"/>
<path d="M0 0 C3.0625 0.125 3.0625 0.125 5.0625 1.125 C4.7325 3.765 4.4025 6.405 4.0625 9.125 C1.72955225 9.16741723 -0.60452567 9.16592937 -2.9375 9.125 C-3.9375 8.125 -3.9375 8.125 -4.0625 4.625 C-3.90325342 0.16609589 -3.90325342 0.16609589 0 0 Z " fill="#6286B3" transform="translate(255.9375,65.875)"/>
<path d="M0 0 C2.64 0 5.28 0 8 0 C8.79953138 3.28696233 9.09658936 4.71023192 8 8 C5.36 8 2.72 8 0 8 C-1.125 2.25 -1.125 2.25 0 0 Z " fill="#6489B6" transform="translate(152,68)"/>
<path d="M0 0 C2.475 0.495 2.475 0.495 5 1 C5 2.65 5 4.3 5 6 C3.35 6 1.7 6 0 6 C0 4.02 0 2.04 0 0 Z " fill="#222222" transform="translate(1000,277)"/>
<path d="M0 0 C1.98 0 3.96 0 6 0 C6.33 1.32 6.66 2.64 7 4 C5.02 4 3.04 4 1 4 C0.67 2.68 0.34 1.36 0 0 Z " fill="#101010" transform="translate(1037,173)"/>
</svg>
